<!-- sample rectangle -->
<svg preserveAspectRatio="xMinYMid meet" xmlns="http://www.w3.org/2000/svg" viewBox="0 0 162.1 44.5">
  <path d="M40.3 44.5v-33h7.1V14c1-1.5 3.6-3 7-3 6.9 0 11.1 5.3 11.1 12.4 0 7.3-4.7 12.5-11.4 12.5-3.1 0-5.4-1.1-6.5-2.4v11h-7.3zm12.6-26.9c-2.8 0-5.4 1.9-5.4 5.9 0 3.9 2.5 6 5.4 6 2.9 0 5.4-2 5.4-6s-2.5-5.9-5.4-5.9zM78.9 11.6h4.7V18h-4.7v8.9c0 2 1.1 2.5 2.6 2.5.8 0 1.5-.1 1.9-.2v6c-.3.1-1.5.7-3.8.7-4.9 0-8-2.9-8-7.7V18h-4.2v-6.4h1.2c2.5 0 3.7-1.7 3.7-3.9V4.6h6.5v7zM92.3 0c2.4 0 4.3 1.9 4.3 4.3s-1.9 4.3-4.3 4.3c-2.3 0-4.2-1.9-4.2-4.3S90 0 92.3 0zm-3.6 35.4V11.6H96v23.9h-7.3zM102.4 35.4V.7h7.3v34.8h-7.3zM119.7 0c2.4 0 4.3 1.9 4.3 4.3s-1.9 4.3-4.3 4.3c-2.3 0-4.2-1.9-4.2-4.3s1.9-4.3 4.2-4.3zm-3.6 35.4V11.6h7.3v23.9h-7.3zM138.2 17.7v17.7h-7.3V17.7h-3.8v-6.1h3.8V9.5c0-5.5 3.3-9.2 9.1-9.2 1.5 0 2.8.2 3.5.5v6c-.4-.1-1-.2-2.2-.2-1.3 0-3.1.6-3.1 3.2v1.8h5.2v6.1h-5.2zM157.5 11.6h4.7V18h-4.7v8.9c0 2 1.1 2.5 2.6 2.5.8 0 1.5-.1 1.9-.2v6c-.3.1-1.5.7-3.8.7-4.9 0-8-2.9-8-7.7V18H146v-6.4h1.2c2.5 0 3.7-1.7 3.7-3.9V4.6h6.5v7zM17.7 28.8c4.8 0 9.8-3.2 9.8-10.3 0-7.1-5.1-10.3-9.8-10.3-4.7 0-9.8 3.2-9.8 10.3H0C0 7.6 8.1.7 17.7.7s17.7 7 17.7 17.7c0 10.8-8.1 17.8-17.7 17.8"></path>
  <path d="M14.9 28.3l-2.1 7.2c.4.1.8.2 1.3.3l1.5-7.4c-.2 0-.4 0-.7-.1zM12.3 27.2l-4 6.5c.4.2.7.4 1.1.6l3.5-6.7c-.1-.2-.4-.3-.6-.4zM10.2 25.3l-5.7 5.2.9.9 5.3-5.6c-.2-.1-.3-.3-.5-.5zM8.7 23l-7 3.5c.2.4.4.8.6 1.1l6.7-4-.3-.6zM8 20.3L.3 21.8c.1.4.2.8.3 1.3L8.1 21c0-.2 0-.4-.1-.7z"></path>
</svg>